<svg width="118" height="120" viewBox="0 0 118 120" fill="none" xmlns="http://www.w3.org/2000/svg">
<path d="M0 60V120H59.0002H118V60V0H59.0002H0V60ZM73.7125 60.1021C73.5618 81.1404 73.3608 89.1065 72.909 90.4853C71.1013 95.949 66.6322 99.8298 60.6572 101.158C54.5311 102.536 40.8734 101.617 37.76 99.6766C37.308 99.3191 37.6094 97.8384 39.2163 93.0894L41.275 86.9106L42.8817 87.5746C48.1041 89.8214 55.5857 90.0766 57.7447 88.0852C59.7532 86.2469 59.9037 84.4596 60.1047 57.549L60.3557 31.6597H67.0842H73.8629L73.7125 60.1021Z" fill="#FCA311"/>
</svg>
